<svg width="100" height="100" viewBox="0 0 100 100" fill="none" xmlns="http://www.w3.org/2000/svg">
<rect x="0.528931" y="0.289062" width="99.1279" height="99.1279" rx="49.564" fill="url(#paint0_linear_478_227)"/>
<g clip-path="url(#clip0_478_227)">
<path d="M45.1735 24.2832V26.4499" stroke="white" stroke-width="2.16667" stroke-linecap="round" stroke-linejoin="round"/>
<path d="M30.0046 28.6212L32.1713 30.7879" stroke="white" stroke-width="2.16667" stroke-linecap="round" stroke-linejoin="round"/>
<path d="M60.3401 28.6172L58.1735 30.7839" stroke="white" stroke-width="2.16667" stroke-linecap="round" stroke-linejoin="round"/>
<path d="M25.6735 43.7832H27.8401" stroke="white" stroke-width="2.16667" stroke-linecap="round" stroke-linejoin="round"/>
<path d="M54.8932 35.1667C53.1432 33.1964 50.8356 31.8045 48.2765 31.1754C45.7174 30.5464 43.0275 30.71 40.5635 31.6445C38.0994 32.5791 35.9776 34.2404 34.4793 36.4083C32.9809 38.5762 32.1768 41.1483 32.1735 43.7836C32.1721 45.2292 32.4168 46.6646 32.8972 48.0281" stroke="white" stroke-width="2.16667" stroke-linecap="round" stroke-linejoin="round"/>
<path d="M40.5319 44.34C40.6258 44.1712 40.7631 44.0306 40.9295 43.9327C41.096 43.8348 41.2856 43.7832 41.4788 43.7832H64.0381C64.2312 43.7832 64.4208 43.8348 64.5873 43.9327C64.7538 44.0306 64.8911 44.1712 64.9849 44.34L74.6136 61.6734C74.7053 61.8383 74.7523 62.0243 74.7501 62.213C74.7478 62.4016 74.6963 62.5864 74.6006 62.7491C74.5049 62.9117 74.3685 63.0466 74.2047 63.1403C74.0409 63.2339 73.8555 63.2832 73.6668 63.2832H31.8501C31.6614 63.2832 31.476 63.2339 31.3122 63.1403C31.1484 63.0466 31.0119 62.9117 30.9163 62.7491C30.8206 62.5864 30.7691 62.4016 30.7668 62.213C30.7645 62.0243 30.8116 61.8383 30.9033 61.6734L40.5319 44.34Z" stroke="white" stroke-width="2.16667" stroke-linecap="round" stroke-linejoin="round"/>
<path d="M49.507 63.2832V74.1165" stroke="white" stroke-width="2.16667" stroke-linecap="round" stroke-linejoin="round"/>
<path d="M56.007 74.1165V63.2832" stroke="white" stroke-width="2.16667" stroke-linecap="round" stroke-linejoin="round"/>
<path d="M48.4233 43.7832L44.09 63.2832" stroke="white" stroke-width="2.16667" stroke-linecap="round" stroke-linejoin="round"/>
<path d="M57.09 43.7832L61.4233 63.2832" stroke="white" stroke-width="2.16667" stroke-linecap="round" stroke-linejoin="round"/>
<path d="M37.2286 50.2832H68.2835" stroke="white" stroke-width="2.16667" stroke-linecap="round" stroke-linejoin="round"/>
<path d="M33.6163 56.7832H71.8948" stroke="white" stroke-width="2.16667" stroke-linecap="round" stroke-linejoin="round"/>
</g>
<defs>
<linearGradient id="paint0_linear_478_227" x1="58.0624" y1="0.28907" x2="141.038" y2="14.3301" gradientUnits="userSpaceOnUse">
<stop stop-color="#0A9642"/>
<stop offset="1" stop-color="#F3ED3B"/>
</linearGradient>
<clipPath id="clip0_478_227">
<rect width="52" height="52" fill="white" transform="translate(24.2115 23.2002)"/>
</clipPath>
</defs>
</svg>
