<svg width="100" height="100" viewBox="0 0 100 100" fill="none" xmlns="http://www.w3.org/2000/svg">
<rect x="0.842896" y="0.738281" width="99.1279" height="99.1279" rx="49.564" fill="url(#paint0_linear_478_265)"/>
<path d="M55.8211 74.2305H74.3621V30.6048C74.3621 29.4477 73.9024 28.3381 73.0843 27.52C72.2662 26.7018 71.1565 26.2422 69.9995 26.2422H56.9118C55.7547 26.2422 54.6451 26.7018 53.827 27.52C53.0088 28.3381 52.5492 29.4477 52.5492 30.6048V60.0521" stroke="white" stroke-width="2.18129" stroke-linecap="round" stroke-linejoin="round"/>
<path d="M64.1229 33.876L61.0931 39.3292H65.6368L62.607 44.7824" stroke="white" stroke-width="2.18129" stroke-linecap="round" stroke-linejoin="round"/>
<path d="M33.8881 38.3261C33.8881 39.2199 34.2431 40.0771 34.8751 40.7092C35.5072 41.3412 36.3643 41.6962 37.2581 41.6962C38.152 41.6962 39.0091 41.3412 39.6412 40.7092C40.2732 40.0771 40.6282 39.2199 40.6282 38.3261C40.6282 37.4323 40.2732 36.5751 39.6412 35.9431C39.0091 35.3111 38.152 34.9561 37.2581 34.9561C36.3643 34.9561 35.5072 35.3111 34.8751 35.9431C34.2431 36.5751 33.8881 37.4323 33.8881 38.3261Z" stroke="white" stroke-width="2.18129" stroke-linecap="round" stroke-linejoin="round"/>
<path d="M37.2582 30.1053V28.2773" stroke="white" stroke-width="2.18129" stroke-linecap="round" stroke-linejoin="round"/>
<path d="M37.2582 48.3775V46.5496" stroke="white" stroke-width="2.18129" stroke-linecap="round" stroke-linejoin="round"/>
<path d="M30.1355 34.2167L28.5541 33.3027" stroke="white" stroke-width="2.18129" stroke-linecap="round" stroke-linejoin="round"/>
<path d="M45.9609 43.3515L44.3795 42.4375" stroke="white" stroke-width="2.18129" stroke-linecap="round" stroke-linejoin="round"/>
<path d="M30.1355 42.4375L28.5541 43.3515" stroke="white" stroke-width="2.18129" stroke-linecap="round" stroke-linejoin="round"/>
<path d="M45.9608 33.3027L44.3794 34.2167" stroke="white" stroke-width="2.18129" stroke-linecap="round" stroke-linejoin="round"/>
<path d="M48.186 73.6852H26.3732L28.5545 59.5068H46.0048L48.186 73.6852Z" stroke="white" stroke-width="2.18129" stroke-linecap="round" stroke-linejoin="round"/>
<path d="M27.547 66.0508H47.0128" stroke="white" stroke-width="2.18129" stroke-linecap="round" stroke-linejoin="round"/>
<path d="M37.2797 59.5068V73.6852" stroke="white" stroke-width="2.18129" stroke-linecap="round" stroke-linejoin="round"/>
<defs>
<linearGradient id="paint0_linear_478_265" x1="58.3764" y1="0.738289" x2="141.352" y2="14.7794" gradientUnits="userSpaceOnUse">
<stop stop-color="#0A9642"/>
<stop offset="1" stop-color="#F3ED3B"/>
</linearGradient>
</defs>
</svg>
